<?xml version="1.0" standalone="no"?>
<!DOCTYPE svg PUBLIC "-//W3C//DTD SVG 20010904//EN"
 "http://www.w3.org/TR/2001/REC-SVG-20010904/DTD/svg10.dtd">
<svg version="1.0" xmlns="http://www.w3.org/2000/svg"
 width="600.000000pt" height="600.000000pt" viewBox="0 0 600.000000 600.000000"
 preserveAspectRatio="xMidYMid meet">
<metadata>
Created by potrace 1.11, written by Peter Selinger 2001-2013
</metadata>
<g transform="translate(0.000000,600.000000) scale(0.100000,-0.100000)"
fill="#000000" stroke="none">
<path d="M2809 5816 c-2 -2 -40 -6 -85 -10 -85 -6 -291 -39 -359 -58 -22 -5
-49 -12 -61 -14 -11 -2 -70 -19 -130 -38 -939 -290 -1651 -1043 -1893 -2001
-19 -74 -50 -237 -56 -295 -2 -14 -7 -59 -11 -100 -16 -144 -9 -561 11 -655 3
-11 6 -33 9 -50 3 -27 20 -120 30 -170 22 -108 78 -291 132 -430 44 -111 161
-348 203 -409 17 -24 31 -47 31 -50 0 -5 80 -126 90 -136 3 -3 25 -32 50 -65
253 -341 626 -644 1025 -834 194 -93 466 -184 640 -215 17 -3 39 -8 50 -10 60
-11 129 -21 240 -33 141 -16 542 -8 647 12 12 3 40 7 63 10 87 13 110 17 116
21 4 2 24 6 45 10 61 9 270 70 369 107 92 35 132 52 265 115 129 60 381 218
485 303 205 168 354 318 487 489 170 220 329 506 416 750 60 168 100 315 126
460 33 178 41 281 41 505 0 178 -5 272 -19 370 -12 83 -28 175 -37 215 -6 25
-12 52 -14 60 -10 48 -39 151 -64 227 -247 752 -812 1373 -1541 1690 -208 91
-487 173 -675 198 -33 5 -102 15 -150 21 -39 6 -471 15 -476 10z"/>
</g>
</svg>
